<svg width="116" height="341" viewBox="0 0 116 341" fill="none" xmlns="http://www.w3.org/2000/svg">
<path d="M102.958 19.7422C102.913 19.2314 103.01 18.5221 102.987 17.9344C102.885 15.449 102.92 14.5462 102.78 12.3094C102.731 11.5866 102.634 10.5097 102.482 9.34504C102.406 8.76302 102.317 8.16194 102.199 7.55743C102.142 7.26345 102.082 6.99019 102.006 6.71553C101.95 6.49025 101.827 6.20061 101.85 6.24176C100.171 3.52683 98.3413 1.19242 98.7268 0.854031C98.7268 0.854022 98.7268 0.854013 98.7268 0.854003C98.7336 0.848353 98.7411 0.843378 98.7493 0.839093C98.9057 0.757329 99.5835 1.28498 99.8132 1.26146C100.042 1.23755 100.959 0.364443 101.775 1.28383C102.41 2.00089 103.384 3.44623 104.128 4.72276C104.919 6.36556 104.804 7.34447 104.941 7.81361C105.065 8.48253 105.284 9.23213 105.401 10.0642C105.755 12.695 105.757 14.0902 106.209 16.452C106.1 17.3925 105.984 18.3565 105.863 19.3188C105.994 20.5412 105.844 22.4268 105.878 23.1831C105.906 23.7891 106.046 24.1467 106.069 24.8012C106.095 25.4988 105.983 26.6354 106.029 27.9279C106.101 30.0709 106.441 30.4683 106.499 31.737C106.559 33.0901 106.392 35.1537 106.516 36.8547C106.553 37.0698 106.591 37.2859 106.628 37.503C106.712 37.3472 106.795 37.1918 106.878 37.0369C106.92 37.9095 106.748 38.2551 106.746 39.0508C106.742 39.9921 106.903 40.4501 106.901 41.0758C106.899 41.5834 106.766 42.2976 106.771 42.946C106.777 43.9077 106.967 43.6998 106.999 44.2223C107.013 44.4428 107.083 48.2748 107.08 48.4839C107.069 50.1322 106.809 50.2758 106.768 51.582C106.695 53.9437 106.725 56.3075 106.755 58.633L106.749 58.7448C106.68 60.0217 106.614 61.2565 106.535 62.4444C106.434 63.951 106.276 65.5062 106.095 66.9949C105.659 64.5774 104.66 69.7288 105.87 67.8866C105.568 69.5359 105.733 70.7362 105.535 72.3045C105.406 73.3175 105.195 74.0113 105.057 75.4603C104.813 78.0396 104.938 80.8971 104.134 81.5612C103.963 84.6013 103.443 87.1833 103.985 88.3369C103.949 89.1252 103.376 91.071 103.243 91.9472C103.109 92.7679 102.394 99.083 102.322 100.123C102.235 101.157 102.105 102.97 102.111 103.848C102.114 104.368 102.259 104.83 102.315 105.365C102.376 105.969 102.327 106.674 101.852 107.679C101.772 109.975 101.69 110.791 101.425 112.908C101.376 113.293 101.255 113.327 101.235 113.552C101.195 114.012 101.21 114.809 101.139 115.639C101.022 117.001 100.688 117.749 101.079 117.638C101.042 118.543 100.999 119.445 100.947 120.351C100.835 120.655 100.722 120.961 100.607 121.265C100.622 121.751 100.632 122.245 100.641 122.734C100.192 122.096 99.99 125.502 100.468 124.46C100.079 126.18 99.6534 127.888 99.1788 129.585C98.6465 129.217 98.2476 133.326 98.6363 133.076C98.5858 133.271 98.5338 133.469 98.4818 133.663C98.3688 133.971 98.2629 134.283 98.1639 134.589C97.7376 135.899 97.4632 137.244 96.9455 138.893C96.3076 140.921 96.2955 140.716 95.8555 141.268C95.7421 141.757 95.626 142.246 95.5064 142.734C95.4831 145.495 94.4986 144.676 93.3476 149.132C92.484 150.106 91.3636 152.624 89.8523 154.433C89.5906 154.757 89.3352 155.07 89.0943 155.357C88.9171 155.568 88.9831 155.637 88.7463 155.924C88.1817 156.633 86.3993 158.12 86.6515 158.289C85.9876 158.76 85.3076 159.21 84.61 159.629C84.1175 160.075 83.6064 160.505 83.0733 160.916C83.1281 160.995 83.183 161.073 83.2379 161.152C81.9336 161.639 80.0672 162.698 79.0112 162.959C78.8044 163.012 78.7207 162.912 78.0821 163.065C77.3396 163.252 75.9323 163.564 75.0083 163.566C74.6604 163.735 74.3033 163.891 73.9302 164.032C72.8544 164.06 72.2413 163.826 71.706 163.62C71.4217 163.502 71.1497 163.394 70.8216 163.324C70.6708 163.313 67.6761 162.728 67.5039 162.642C66.8278 162.481 66.5579 162.494 65.962 162.348C65.4306 162.104 64.2202 162.19 62.7044 159.9C62.4593 159.442 62.3483 158.975 62.3047 158.538C62.2839 158.255 62.2639 157.973 62.2229 157.683C61.9996 156.597 61.6279 153.17 61.4712 152.855C61.7203 151.449 62.5541 147.656 63.298 146.693C63.4865 146.4 63.6649 146.402 64.2673 145.541C64.429 145.317 64.66 144.971 64.948 144.59C65.5789 143.726 66.6317 142.86 67.3906 142.533C68.1219 142.203 68.639 142.161 69.0401 142.146C69.2731 142.141 69.4694 142.147 69.6812 142.139C70.2078 142.127 70.7126 141.995 71.4944 142.205C72.2553 142.414 73.0779 142.929 73.5135 143.732C74.0953 144.787 74.5645 145.926 74.9511 146.885C75.7889 148.953 76.6321 150.754 77.1746 152.54C77.2465 153.019 77.2426 153.441 77.3274 153.934C78.3273 159.773 78.3647 166.442 78.0837 172.252C77.991 174.964 76.9596 181.633 77.9547 179.909C77.9716 180.116 77.9426 180.604 77.8805 181.268C77.6808 183.591 76.9427 187.952 76.7894 188.958C76.609 190.249 76.6103 191.297 76.456 192.307C75.98 195.366 75.4956 197.489 74.8787 201.203C74.7182 202.162 74.6781 203.222 74.5531 203.781C74.4024 204.456 74.065 205.151 73.8529 206.019C73.3556 208.1 72.4353 211.986 71.8594 213.955C71.7546 214.317 71.5707 214.399 71.3811 214.902C70.6436 216.862 69.9929 219.101 70.5876 218.847C69.5567 221.331 69.0584 223.763 68.2914 226.123C67.3138 229.145 65.6931 233.615 64.1521 237.604C63.1571 240.196 62.2015 242.59 61.5614 244.281C60.5249 246.977 60.7766 247.02 58.776 250.783C58.3259 251.618 57.8627 252.432 57.3023 253.434C55.989 255.78 54.4778 257.742 53.9382 259.774C52.4093 262.31 51.3139 264.424 49.8537 266.11C49.8142 266.383 49.7735 266.657 49.7315 266.934C49.5501 267.252 49.3701 267.568 49.1915 267.88C49.0507 267.928 48.9098 267.977 48.7687 268.026C47.8382 269.587 46.9035 271.54 46.0297 273.224C45.6632 273.933 45.2912 274.62 44.9541 275.178C43.0557 278.342 37.9424 286.335 35.9762 289.22C34.9337 290.757 35.0588 290.949 34.1315 291.622C33.9369 291.989 33.7419 292.355 33.5467 292.722C33.4881 292.992 33.4294 293.261 33.3706 293.531C32.1089 295.546 30.4799 297.853 29.2685 299.766C27.0634 303.254 23.9493 308.613 21.5643 312.012C20.9695 312.86 20.1073 313.844 19.5531 314.709C18.7588 315.948 18.8306 316.429 17.8148 318.014C16.6161 319.884 14.5386 322.775 12.8335 325.213C12.0417 326.347 11.3451 327.36 10.8232 328.176C10.3303 328.946 10.2081 329.351 9.86651 329.896C8.47084 332.126 7.27334 333.93 6.01922 336.134C4.246 338.218 4.04321 337.793 3.2327 338.263C2.62239 338.625 0.913441 339.776 0.532421 339.832C0.267775 339.875 0.508975 339.154 0.18281 339.249C1.93115 336.61 2.81204 335.546 4.51251 333.533C6.62458 330.341 8.71248 327.123 10.803 323.892C11.3506 323.046 11.9107 322.179 12.4716 321.309C12.802 321.005 13.1366 320.694 13.4753 320.377C13.4755 320.377 13.4757 320.377 13.4759 320.377C14.5948 318.887 14.7849 318.062 15.2789 317.177C19.9969 308.741 30.6138 293 36.2522 284.003C37.4749 282.072 41.2342 275.649 42.1939 274.396C42.4448 274.072 42.6506 274.064 42.8783 273.701C43.2118 273.113 43.5497 272.515 43.876 271.935C45.4443 269.149 46.9789 266.372 48.4789 263.571C52.6409 256.825 56.2522 249.465 59.2899 242.123C60.0565 240.284 60.7895 238.435 61.5021 236.573C68.3662 218.558 73.2476 199.878 74.9468 181.019C74.9675 180.78 74.9877 180.542 75.0073 180.306C75.3568 176.221 75.4767 171.046 75.53 167.061C75.551 165.421 75.8223 164.695 75.5194 162.535C75.5927 162.509 75.6661 162.483 75.7395 162.456C75.5487 160.549 75.2937 159.347 75.0338 157.249C74.8655 155.479 73.9522 150.869 73.4327 149.443C73.1919 148.678 73.427 148.928 73.1657 148.225C72.8701 147.438 72.2197 146.181 71.4015 144.994C71.2948 144.848 70.9784 144.688 70.5712 144.621C70.2768 144.567 69.8625 144.541 69.4297 144.593C68.4625 144.669 67.2669 145.52 66.8354 146.116C66.8162 146.141 66.7977 146.164 66.7801 146.188C64.3777 149.247 64.2591 153.793 65.0309 158.061C65.0603 158.237 65.1109 158.388 65.1884 158.537C65.4027 159.141 66.7493 159.98 67.1106 160.082C67.808 160.323 68.0853 160.208 68.5861 160.318C69.5687 160.527 70.8157 160.752 72.1679 161.01C74.0791 161.409 76.1823 161.229 77.662 160.754C81.6661 159.521 85.1782 156.384 88.2664 152.984C91.0366 149.908 92.3486 145.518 93.523 141.328C94.0979 139.256 94.7383 136.609 95.5105 133.848C96.7327 129.533 97.5555 124.799 98.0767 121.625C98.2578 120.519 98.4084 120.836 98.5289 119.902C98.6601 118.863 98.5945 118.285 98.6396 117.796C98.9276 114.872 99.2981 108.857 99.5295 105.219C99.5678 104.662 99.6096 104.153 99.6523 103.728C99.7142 103.113 99.8929 102.676 99.9162 102.308C99.9284 102.121 99.8532 101.693 99.8833 101.107C100.156 95.9335 100.573 92.1834 101.091 87.154C102.024 78.2294 102.9 67.9935 103.786 58.4848L103.781 58.5715C103.801 57.8063 103.822 57.0527 103.844 56.3116C103.907 54.0916 104.227 52.599 104.229 52.2752C104.233 51.5859 104.039 51.1542 104.007 49.7707C103.906 45.1611 104.147 38.9811 104.014 34.6091C103.951 32.4628 103.66 29.4906 103.559 27.3688C103.486 25.673 103.464 21.673 103.318 20.9347C103.233 20.4768 103.008 20.2744 102.958 19.7422ZM104.739 76.9901C104.424 76.6579 104.398 79.8535 104.701 78.6817C104.77 78.4092 104.82 77.083 104.739 76.9901ZM77.572 161.806C77.6692 161.771 77.7663 161.736 77.8634 161.701C77.7979 161.273 77.7322 160.887 77.6596 160.446C77.6177 160.695 77.5739 160.932 77.5291 161.167C77.544 161.378 77.5583 161.591 77.572 161.806Z" fill="#5CCF54"/>
<path d="M115.456 11.4623C115.488 11.4568 115.429 11.5765 115.445 11.5976C115.506 11.6854 115.48 11.7806 115.52 11.8786C115.58 12.0245 116.006 12.1555 115.43 12.8489C115.43 12.849 115.43 12.849 115.43 12.849C115.424 12.8558 115.418 12.8626 115.413 12.8695C115.302 13.0005 115.155 13.1224 115.027 13.2686C114.899 13.4148 114.101 14.3816 114.02 14.4059C113.909 14.4346 113.987 14.0822 113.948 14.0693C113.923 14.061 113.827 14.1297 113.79 14.1255C113.668 14.1106 113.68 14.0124 113.413 14.1948C113.487 14.0451 113.561 13.8945 113.634 13.7441C113.549 13.773 113.626 13.5588 113.596 13.5496C113.571 13.542 113.479 13.6344 113.456 13.623C113.429 13.611 113.482 13.4752 113.428 13.4595C113.34 13.4327 113.121 13.6882 113.054 13.6898C112.986 13.6922 113.034 13.4976 112.909 13.5496C112.879 13.5735 112.85 13.5973 112.82 13.6212C112.773 13.6908 112.726 13.7604 112.679 13.8299C112.628 13.8396 112.723 13.6957 112.701 13.6742C112.675 13.649 112.559 13.765 112.54 13.7493C112.525 13.7362 112.584 13.6171 112.558 13.607C112.521 13.5922 112.411 13.7457 112.373 13.7608C112.359 13.7668 112.174 13.7545 112.166 13.7502C112.11 13.7152 112.264 13.5089 112.236 13.4583C112.159 13.3195 111.91 13.3892 111.751 13.3636C111.68 13.3523 111.637 13.2994 111.614 13.2276C112.103 12.7738 112.255 12.2377 111.672 13.0937C111.709 12.9353 111.495 13.1206 111.472 13.0414C111.458 12.9898 111.525 12.86 111.475 12.8234C111.385 12.7598 111.029 12.992 111.478 12.4086C111.295 12.4241 111.385 12.1495 110.925 12.6098C110.872 12.6169 111.06 12.2706 111.068 12.2049C111.068 12.2048 111.068 12.2046 111.068 12.2045C111.073 12.144 110.989 11.8349 110.964 11.7985C110.938 11.7621 110.888 11.703 110.823 11.7204C110.742 11.742 110.261 12.2144 110.735 11.5802C110.621 11.5623 110.612 11.5228 110.61 11.3957C110.61 11.3727 110.689 11.2863 110.682 11.2799C110.668 11.2668 110.585 11.3075 110.553 11.2916C110.5 11.2657 110.646 11.0651 110.392 11.342C110.322 11.3621 110.252 11.3821 110.181 11.4019C110.222 11.3404 110.262 11.2789 110.303 11.2175C110.234 11.2609 110.165 11.3042 110.096 11.3474C110.489 10.9714 110.167 11.1061 109.983 11.362C110.008 11.2307 110.035 11.0997 110.062 10.9691C110.501 10.5339 110 10.8086 109.774 11.0574C109.768 11.0513 109.763 11.0451 109.757 11.039C109.821 10.8713 109.68 10.9201 109.695 10.7799C109.711 10.6398 109.759 10.6031 109.942 10.3837C109.916 10.3807 109.89 10.3777 109.864 10.3747C109.234 10.8465 110.207 9.91189 109.653 10.2003C109.961 9.81592 109.678 9.89338 109.504 9.9269C109.484 9.9308 109.415 9.99656 109.384 10.0061C109.308 10.0285 109.332 9.8768 109.112 10.0906C109.154 10.0058 109.196 9.92124 109.238 9.83684C109.179 9.85598 109.12 9.87503 109.062 9.89401C108.992 9.95979 108.923 10.0256 108.853 10.0914C109.054 9.82868 108.905 9.85302 108.934 9.76951C108.939 9.75267 109.035 9.66129 109.044 9.61803C109.055 9.56698 108.988 9.55315 108.994 9.49876C108.878 9.58777 108.761 9.67664 108.643 9.76536C108.541 9.77163 108.81 9.49375 108.807 9.44604C108.807 9.43776 108.703 9.3647 108.693 9.36529C108.608 9.3688 108.373 9.60008 108.319 9.43317C108.309 9.40322 108.379 9.31061 108.366 9.2884C108.353 9.26741 108.269 9.27602 108.164 9.31017L108.131 9.2715C108.037 9.30045 107.926 9.3497 107.835 9.41711C108.034 9.18878 107.851 9.1571 107.893 9.07101C107.905 9.04469 108.052 8.92293 108.059 8.86779C108.065 8.82292 107.897 8.85684 107.892 8.81038C107.887 8.7606 108.002 8.64847 107.999 8.62688C107.996 8.6066 107.885 8.67525 107.871 8.65619C107.827 8.59545 107.945 8.41157 107.911 8.36325C107.862 8.2929 107.518 8.47562 107.341 8.52709C107.349 8.49768 107.402 8.43239 107.391 8.41748C107.255 8.23159 107.145 7.98673 107.062 7.75652C107.023 7.65028 107.253 7.11498 106.632 7.72022C106.491 7.78793 106.589 7.35872 106.559 7.3156C106.531 7.27282 106.386 7.34078 106.358 7.31145C106.276 7.22298 106.306 7.08487 106.108 7.05908C106.057 7.05284 105.89 7.13933 105.877 7.12078C105.862 7.09808 105.979 6.96143 105.965 6.92728C105.931 6.84689 105.785 6.76546 105.757 6.68442C105.752 6.66938 105.868 6.56458 105.891 6.51706C105.984 6.3317 105.912 6.27237 105.543 6.60771C105.69 6.34449 105.432 6.43902 105.357 6.3763C105.199 6.24206 105.045 5.8873 104.771 5.89261C104.598 5.89677 104.433 6.0473 104.469 5.79764C104.477 5.7423 104.497 5.6772 104.506 5.61075C104.527 5.45463 104.769 5.10696 104.348 5.38279C104.367 5.21196 104.239 5.20644 104.495 4.85713C104.413 4.91873 104.331 4.9804 104.25 5.04213C104.238 5.03366 104.227 5.02492 104.216 5.01635C104.284 4.94726 104.353 4.87815 104.421 4.80901C104.372 4.71631 103.994 4.89716 103.938 4.83352C103.846 4.7278 103.71 4.3603 103.71 4.17353C103.71 4.07444 103.56 4.21833 103.836 3.88857C103.803 3.89805 103.771 3.90761 103.738 3.91725C103.665 3.97612 103.591 4.03507 103.518 4.09412C103.452 4.03327 103.479 3.85476 103.417 3.79558C103.304 3.68795 102.958 3.71405 102.963 3.48736C102.965 3.43064 103.06 3.25479 103.03 3.23072C102.987 3.19542 102.761 3.42376 102.707 3.38293C102.614 3.31121 102.694 2.88643 102.589 2.83597C102.558 2.82073 102.47 2.90256 102.444 2.89802C102.338 2.88086 102.282 2.82355 102.101 2.91519C102.218 2.61642 102.465 2.30605 102.684 1.96937C102.85 1.71559 103.209 1.10891 103.357 0.889057C103.461 0.734953 103.631 0.562891 103.744 0.391858C103.961 0.35073 103.906 0.536366 103.817 0.833057C103.994 0.959618 104.162 1.0858 104.329 1.21733C104.27 1.31388 104.21 1.41022 104.151 1.50636C104.15 1.50654 104.15 1.50672 104.15 1.50691C104.123 1.65534 104.34 1.46276 104.416 1.44337C105.15 1.25704 105.398 2.18434 105.646 2.54766C105.701 2.62519 106.024 2.74671 105.936 2.91822C105.913 2.96284 105.79 3.0841 105.797 3.10223C105.98 3.1481 106.164 3.19565 106.346 3.24331C106.369 3.66519 106.756 3.7664 107.004 3.9856C107.673 4.57718 108.339 5.1586 108.857 5.85007C108.957 5.9844 109.191 6.06508 109.23 6.24411C109.246 6.31851 109.05 6.51562 109.266 6.45415C109.209 6.50207 109.152 6.55 109.095 6.59793C109.214 6.60134 109.376 6.53239 109.445 6.58903C109.502 6.63683 109.634 6.78089 109.653 6.84895C109.663 6.88402 109.547 6.9622 109.567 6.98607C109.603 7.02616 109.825 6.99421 109.871 7.05142C109.914 7.10342 109.86 7.29229 109.911 7.31776C110.036 7.38147 110.222 7.40442 110.351 7.4767L110.315 7.43324C110.37 7.4593 110.415 7.4963 110.438 7.55179C110.458 7.60192 110.367 7.77084 110.382 7.77979C110.411 7.79633 110.547 7.68549 110.578 7.68592C110.734 7.68814 110.693 7.95194 110.759 8.03517C110.975 8.30647 111.286 8.51802 111.507 8.7859C111.647 8.95573 111.928 9.18789 111.983 9.42248C111.995 9.47324 111.853 9.60415 111.88 9.62961C111.91 9.6578 112.015 9.57882 112.036 9.58434C112.182 9.62229 112.482 9.72185 112.483 9.902C112.483 9.93641 112.394 10.0594 112.405 10.0685C112.41 10.0733 112.491 10.0081 112.515 10.0152C112.656 10.058 112.731 10.135 112.803 10.2273C112.837 10.2714 112.87 10.3182 112.909 10.3668C113.141 10.656 113.59 10.7721 113.841 11.1003C113.896 11.1717 113.76 11.4438 113.772 11.4489C113.797 11.4609 113.934 11.3142 114.008 11.309C114.253 11.2939 114.319 11.6167 114.521 11.6485C114.621 11.6641 114.874 11.54 114.978 11.5511C115.06 11.5591 115.128 11.7407 115.222 11.6734C115.279 11.6326 115.422 11.4692 115.456 11.4623ZM111.53 12.6522C111.761 12.3936 111.473 12.529 111.393 12.7043C111.375 12.7439 111.47 12.7195 111.53 12.6522ZM107.666 7.79506C107.59 7.85862 107.514 7.92217 107.438 7.98572C107.481 7.97256 107.523 7.95942 107.566 7.94629C107.606 7.90137 107.646 7.85645 107.686 7.81152C107.679 7.80603 107.672 7.80055 107.666 7.79506Z" fill="#5CCF54"/>
<path d="M98.1958 17.3856C98.2195 17.4053 98.0895 17.4311 98.0824 17.4542C98.0514 17.5506 97.9613 17.5863 97.9098 17.6752C97.8331 17.8059 98.0036 18.2089 97.1025 18.2099C97.1025 18.2099 97.1025 18.2099 97.1025 18.2099C97.0936 18.2099 97.0847 18.2098 97.0757 18.2098C96.904 18.2083 96.7166 18.1738 96.5224 18.1686C96.3282 18.1635 95.0744 18.1673 95.0039 18.1181C94.911 18.0467 95.2326 17.8744 95.2185 17.8359C95.2088 17.8096 95.0949 17.7769 95.0748 17.743C95.01 17.6335 95.0937 17.5772 94.7849 17.4747C94.9485 17.4363 95.112 17.398 95.2757 17.3605C95.2007 17.3076 95.4171 17.2321 95.4058 17.2007C95.3965 17.1747 95.2678 17.157 95.2624 17.1297C95.2555 17.0992 95.3958 17.0555 95.3762 16.9998C95.3449 16.9084 95.0091 16.8815 94.9682 16.8241C94.9259 16.7643 95.1121 16.6815 94.9973 16.6016C94.9607 16.5906 94.9241 16.5795 94.8876 16.5682C94.8036 16.571 94.7197 16.5739 94.6357 16.5769C94.5986 16.5365 94.7708 16.5281 94.7757 16.4932C94.7816 16.452 94.6204 16.4216 94.6228 16.3932C94.6249 16.3699 94.757 16.3462 94.7507 16.3157C94.7423 16.2711 94.5538 16.2683 94.5202 16.2418C94.5068 16.2321 94.4167 16.0439 94.4164 16.0329C94.4157 15.9536 94.6732 15.9699 94.7014 15.9104C94.7748 15.7544 94.611 15.5644 94.5493 15.3893L94.5767 15.244C94.5739 15.2356 94.5714 15.2274 94.5692 15.2192C94.5498 15.1471 94.5802 15.0838 94.6355 15.0298C95.2536 15.2819 95.8049 15.1861 94.7817 15.0244C94.9414 14.989 94.6829 14.873 94.7453 14.8176C94.7859 14.7818 94.9321 14.7871 94.944 14.7253C94.9639 14.616 94.6016 14.3934 95.3209 14.5503C95.2287 14.3915 95.5155 14.3542 94.9015 14.1375C94.8722 14.0942 95.268 14.114 95.3286 14.0925C95.3856 14.0712 95.6273 13.86 95.649 13.8209C95.6706 13.7814 95.7023 13.7108 95.658 13.6593C95.6034 13.5954 94.9673 13.3714 95.7456 13.517C95.712 13.407 95.7435 13.3806 95.8569 13.3221C95.8774 13.3116 95.9897 13.3439 95.9926 13.335C95.9982 13.3166 95.9252 13.2599 95.9252 13.2238C95.9254 13.1645 96.17 13.2063 95.8092 13.1014C95.7601 13.047 95.711 12.9924 95.6621 12.9379C95.7352 12.9469 95.8084 12.9559 95.8815 12.965C95.812 12.9224 95.7426 12.8796 95.6732 12.8368C96.1849 13.0219 95.9209 12.792 95.6097 12.7416C95.7389 12.7059 95.868 12.6709 95.9971 12.6364C96.5826 12.8339 96.1132 12.5078 95.7892 12.418C95.7922 12.4103 95.7952 12.4025 95.7982 12.3948C95.9767 12.3763 95.8693 12.2719 96.0014 12.2223C96.1334 12.1729 96.1881 12.1995 96.4665 12.2625C96.4574 12.2379 96.4483 12.2133 96.4392 12.1888C95.7326 11.8432 97.0081 12.2825 96.4981 11.9207C96.9815 12.0185 96.7827 11.8006 96.6721 11.6627C96.6593 11.6467 96.5691 11.6165 96.546 11.5932C96.4906 11.5364 96.6358 11.4871 96.3439 11.3933C96.4382 11.3909 96.5325 11.3885 96.6268 11.3861C96.5822 11.3437 96.5376 11.3012 96.493 11.2588C96.4021 11.2287 96.3113 11.1985 96.2205 11.1684C96.3363 11.1873 96.3993 11.1845 96.4362 11.1726C96.5034 11.1506 96.485 11.0976 96.5413 11.0881C96.5589 11.0853 96.6846 11.1257 96.7269 11.1127C96.7771 11.0979 96.7582 11.0317 96.8091 11.0103C96.6751 10.9501 96.541 10.89 96.4071 10.8296C96.3527 10.7434 96.7253 10.8471 96.7659 10.8213C96.7729 10.8169 96.7878 10.6888 96.782 10.6805C96.7381 10.608 96.4221 10.515 96.5415 10.3877C96.563 10.365 96.678 10.381 96.6909 10.3582C96.7135 10.319 96.5158 10.1051 96.2952 10.014C96.5949 10.0622 96.53 9.88291 96.6257 9.87206C96.6551 9.86888 96.8347 9.93118 96.8864 9.90754C96.9284 9.88868 96.8146 9.75678 96.8527 9.72719C96.8937 9.69625 97.0489 9.73714 97.0662 9.72291C97.0824 9.7094 96.9674 9.64869 96.9768 9.62539C97.0083 9.55365 97.2283 9.55806 97.2531 9.50285C97.2899 9.42222 96.9611 9.21289 96.83 9.08114C96.8599 9.0724 96.9432 9.08397 96.9507 9.06629C97.0483 8.84529 97.2141 8.61486 97.3803 8.42016C97.457 8.32913 98.0424 8.26607 97.214 8.00816C97.0884 7.91458 97.5208 7.78089 97.5463 7.7342C97.572 7.68624 97.4458 7.58641 97.4604 7.54591C97.5048 7.42339 97.6428 7.38436 97.5814 7.18597C97.5651 7.13457 97.4141 7.02117 97.4258 6.99965C97.4403 6.97393 97.6156 7.01628 97.641 6.98632C97.7002 6.91446 97.7148 6.73688 97.7782 6.67073C97.7901 6.65879 97.9347 6.71745 97.9883 6.71694C98.1978 6.71525 98.223 6.61987 97.7624 6.42982C98.0665 6.44378 97.8751 6.24251 97.9051 6.14022C97.9689 5.92457 98.2479 5.61005 98.1465 5.34325C98.0823 5.17492 97.8812 5.07715 98.1354 5.00012C98.1917 4.98311 98.2613 4.97314 98.3289 4.95262C98.4883 4.90362 98.9022 5.00108 98.5013 4.69461C98.6742 4.64156 98.6418 4.50731 99.061 4.6249C98.9762 4.56712 98.8916 4.50924 98.8069 4.45126C98.8121 4.4363 98.8173 4.42135 98.8224 4.4064C98.9104 4.44819 98.9983 4.49002 99.0862 4.5319C99.1616 4.44706 98.8794 4.13016 98.9287 4.0477C99.01 3.90863 99.3521 3.62549 99.543 3.56369C99.6436 3.53107 99.4683 3.41855 99.8585 3.60076C99.8423 3.57001 99.8261 3.53921 99.81 3.50838C99.7358 3.45003 99.6616 3.39155 99.5876 3.33296C99.6389 3.24173 99.8276 3.21404 99.8798 3.12907C99.9725 2.97647 99.91 2.60202 100.156 2.5438C100.218 2.52923 100.41 2.59214 100.434 2.55435C100.469 2.49911 100.215 2.30184 100.261 2.22746C100.341 2.09926 100.803 2.10419 100.865 1.98032C100.884 1.94311 100.802 1.85439 100.81 1.82328C100.845 1.69276 100.914 1.62371 100.851 1.41269C101.17 1.51307 101.461 1.78436 101.786 2.02042C102.033 2.19773 102.606 2.60721 102.808 2.77866C102.95 2.89837 103.111 3.0771 103.27 3.20714C103.32 3.39564 103.157 3.30977 102.876 3.19648C102.773 3.33606 102.673 3.48212 102.574 3.6329C102.475 3.57889 102.376 3.52534 102.276 3.47226C102.276 3.47212 102.276 3.47197 102.275 3.47183C102.129 3.45234 102.344 3.64709 102.375 3.71571C102.673 4.3634 101.891 4.67692 101.619 5.00769C101.56 5.07768 101.55 5.40029 101.362 5.36624C101.313 5.35699 101.16 5.27709 101.145 5.28829C101.161 5.47046 101.179 5.65329 101.198 5.83416C100.816 5.9842 100.864 6.3762 100.763 6.67641C100.489 7.49256 100.272 8.31982 99.9137 9.08505C99.8441 9.23323 99.8871 9.47205 99.7506 9.59091C99.694 9.64016 99.4262 9.56504 99.5863 9.72166C99.5165 9.69534 99.4468 9.66902 99.377 9.64271C99.4328 9.7472 99.5728 9.85503 99.5581 9.94107C99.5455 10.0129 99.4872 10.1964 99.4382 10.2459C99.4132 10.2717 99.2872 10.211 99.277 10.2401C99.2607 10.2895 99.4007 10.4648 99.3755 10.5327C99.3526 10.5943 99.1636 10.643 99.1677 10.6996C99.1821 10.9002 99.3388 11.1674 99.2142 11.3293C99.1793 11.3743 98.9861 11.3796 98.9854 11.397C98.9845 11.4313 99.1471 11.4978 99.1613 11.5259C99.2314 11.6713 98.979 11.7648 98.9355 11.8684C98.9185 11.9087 98.903 11.9493 98.8888 11.9901C98.7808 12.3005 98.7266 12.639 98.6009 12.9322C98.5101 13.1437 98.4242 13.5119 98.2362 13.6717C98.1955 13.7062 98.0156 13.6374 98.0043 13.6736C97.9918 13.7139 98.1091 13.7741 98.1133 13.7959C98.143 13.9477 98.1829 14.2694 98.0201 14.3534C97.9888 14.3694 97.8394 14.3439 97.8358 14.358C97.8337 14.3651 97.9277 14.4099 97.9314 14.4348C97.964 14.6557 97.8665 14.7804 97.7804 14.9622C97.6449 15.2496 97.6745 15.6199 97.586 15.9406L97.6062 15.8334C97.5944 15.8939 97.5774 15.9542 97.5521 16.0138C97.521 16.0866 97.2193 16.1117 97.2211 16.1237C97.2247 16.1494 97.4225 16.1845 97.4674 16.2382C97.6147 16.4149 97.388 16.6292 97.482 16.8006C97.5281 16.8847 97.7787 17.0049 97.8331 17.0865C97.8763 17.1514 97.7738 17.3036 97.8852 17.3346C97.9524 17.3532 98.1689 17.3643 98.1958 17.3856ZM95.1225 14.702C95.4548 14.8007 95.21 14.5975 95.0172 14.6001C94.9738 14.6008 95.0362 14.6764 95.1225 14.702ZM97.6331 8.98419C97.5405 8.9493 97.4479 8.91442 97.3552 8.87954C97.3872 8.91092 97.4192 8.94223 97.4512 8.97348C97.5102 8.98591 97.5692 8.99837 97.6282 9.01085C97.6298 9.00197 97.6314 8.99309 97.6331 8.98419Z" fill="#5CCF54"/>
</svg>
