<svg width="24" height="85" viewBox="0 0 24 85" fill="none" xmlns="http://www.w3.org/2000/svg">
<path d="M11.7023 3.11404C11.7639 3.04157 11.9521 3.06563 12.0491 3.00202C12.4608 2.7308 12.666 2.68027 13.0653 2.42107C13.6573 2.04618 15.1574 0.500548 15.7555 1.17056C15.7555 1.17058 15.7555 1.17059 15.7556 1.1706C15.7614 1.17721 15.7672 1.18404 15.7729 1.19109C15.8807 1.32495 15.8657 1.58867 15.9743 1.75179C16.0815 1.91619 16.9321 2.83806 16.7762 3.06947C16.5491 3.39488 15.638 3.75831 15.4894 3.90149C15.3888 3.99998 15.3286 4.20009 15.2026 4.3318C14.7923 4.75803 14.505 4.8846 14.2602 5.46409C13.9859 5.46848 13.7116 5.46902 13.4378 5.46337C13.2483 5.69333 12.7551 5.75666 12.6094 5.85508C12.4895 5.93792 12.4774 6.09363 12.3442 6.17341C12.2537 6.22801 12.1059 6.2494 11.9473 6.28917L12.0358 6.23842C11.9504 6.26765 11.8613 6.30817 11.782 6.37368C11.4486 6.65255 11.5994 6.96855 11.4334 7.15737C11.2634 7.35288 10.8359 7.48973 10.6801 7.8138C10.6764 7.86973 10.6731 7.92557 10.6702 7.98135C10.7509 8.01867 10.8313 8.05657 10.9112 8.09505C10.8237 8.23839 10.6514 8.17016 10.5438 8.28042C10.4174 8.41086 10.4779 8.58802 10.3978 8.67813C10.3323 8.75175 10.1453 8.76973 10.068 8.87617C9.95602 9.03026 10.1291 9.11682 10.0934 9.21764C10.0752 9.25476 9.70913 9.91571 9.68942 9.95383C9.50992 10.2219 9.28164 10.1009 9.11647 10.309C8.66071 10.8894 8.45856 11.6605 8.20748 12.3067C8.0946 12.5962 7.93552 12.8773 7.76161 13.1391C7.38787 12.4011 6.44172 13.1712 7.55208 13.248C7.26796 13.4995 7.41536 13.8432 7.23502 14.1254C7.11823 14.3085 6.92611 14.3865 6.80487 14.6719C6.60838 15.1366 6.71137 15.7746 6.16288 15.7766L6.19794 15.6828C6.14635 15.6893 6.08893 15.69 6.02493 15.6844C5.90793 16.4277 5.42154 16.8659 5.92356 17.3491C5.89062 17.5282 5.35967 17.7802 5.23614 17.9336C5.11434 18.0802 4.43065 19.2642 4.35234 19.4632C4.26231 19.6692 4.12386 20.0184 4.11686 20.214C4.10904 20.4531 4.69626 20.8139 3.82592 20.9593C3.74626 21.437 3.67924 21.5935 3.47858 21.9952C3.44243 22.0686 3.32694 22.0487 3.31509 22.0948C3.29093 22.1897 3.33366 22.3759 3.30542 22.5424C3.25782 22.8208 2.98255 22.9352 3.35648 22.9826C3.37822 23.1789 3.40326 23.3692 3.4287 23.5674C3.34489 23.6182 3.26084 23.6716 3.17739 23.7232C3.23699 23.834 3.29705 23.9453 3.35758 24.0569C2.84177 23.8429 3.03851 24.6082 3.38507 24.427C3.21717 24.7562 3.0512 25.119 2.89508 25.4566C2.28667 25.3235 2.72867 26.262 3.0737 26.215C3.06893 26.2558 3.06422 26.2968 3.05956 26.3379C2.85955 26.6856 2.96338 27.0365 2.82194 27.4736C2.681 27.9222 2.62547 27.8735 2.33351 27.993C2.34379 28.0991 2.35442 28.206 2.36539 28.3137C3.11881 28.9162 1.77032 28.7483 2.34505 29.7434C1.84853 30.035 2.10002 30.8233 2.25505 31.3115C2.27292 31.3695 2.36795 31.3694 2.39822 31.4467C2.47046 31.6338 2.35884 32.133 2.66531 32.1095C2.58057 32.2767 2.49648 32.4436 2.41316 32.6146C2.47323 32.75 2.53378 32.8863 2.59479 33.0235C2.6904 33.0192 2.78601 33.0149 2.88161 33.0105C2.56631 33.3101 2.71106 33.7272 2.64454 33.9469C2.63097 33.9905 2.49951 34.0063 2.47074 34.1421C2.43627 34.2989 2.49285 34.5997 2.46313 34.7827C2.61351 34.8442 2.76397 34.9056 2.91453 34.9668C3.01516 35.2875 2.63876 35.4319 2.62316 35.6309C2.62 35.6677 2.6979 36.3112 2.70911 36.3396C2.79803 36.6147 3.11562 36.4992 3.1211 37.3306C3.12251 37.4824 3.0199 37.6042 3.02799 37.7341C3.04107 37.9605 3.37082 38.634 3.61458 38.665C3.34923 38.9945 3.55308 39.7013 3.49544 39.9398C3.47719 40.01 3.29006 40.0473 3.2753 40.2601C3.26961 40.3414 3.312 40.4769 3.35908 40.6213C3.41224 40.7852 3.47014 40.9573 3.47067 41.0725C3.47104 41.3039 3.32181 41.4012 3.32298 41.5055C3.32426 41.6044 3.46298 41.679 3.47777 41.8109C3.52131 42.2188 3.35795 42.6195 3.38974 42.9402C3.4361 43.4118 3.85934 43.7799 4.06951 44.1589C4.05511 44.2589 3.98355 44.3626 3.99327 44.4636C4.11306 45.7313 4.17833 47.156 4.22673 48.4178C4.24698 49.0038 3.89718 50.5016 4.71214 50.0177C4.88212 50.1986 4.7207 51.6859 4.76032 51.9599C4.79494 52.2326 4.98179 52.4259 5.01799 52.6364C5.12928 53.2749 5.09846 53.7459 5.3916 54.4834C5.46811 54.6737 5.69445 54.843 5.71894 54.9583C5.74793 55.0973 5.61065 55.2886 5.6441 55.471C5.72314 55.9086 5.99934 56.6828 6.09768 57.0943C6.1148 57.1696 5.97396 57.242 5.96126 57.363C5.91021 57.8339 6.09042 58.2935 6.53104 58.0455C6.44736 58.6608 6.87277 59.0494 7.08112 59.5148C7.16486 59.7024 7.25588 59.9163 7.35851 60.1544C7.74174 61.0597 8.45859 62.363 9.00941 62.9271C9.44213 63.3715 9.61469 63.2316 9.94268 64.0879C10.0144 64.2751 10.0755 64.4719 10.1699 64.7045C10.3813 65.2359 10.3436 65.9086 10.9994 65.9798C11.2568 66.574 11.6272 66.9348 11.5561 67.5628C11.6713 67.5482 11.7866 67.5336 11.9019 67.5189C11.9497 67.5806 11.9978 67.6425 12.046 67.7045C11.9818 67.7815 11.9176 67.8586 11.8535 67.9358C12.1607 68.4025 12.9067 68.7371 13.1881 69.116C13.6573 69.755 14.7871 71.4699 15.1574 72.1417C15.3522 72.4992 15.5285 72.3857 15.3377 72.8327C15.417 72.8842 15.4966 72.9357 15.5761 72.9871C15.6844 72.9723 15.7926 72.9573 15.9009 72.9422C16.2257 73.3398 16.4993 73.906 16.8115 74.2823C17.3823 74.9721 18.4429 75.8303 18.8987 76.6151C19.0141 76.8141 19.0526 77.1531 19.1982 77.3161C19.4099 77.5533 19.7058 77.4042 19.9772 77.7016C20.448 78.2203 21.0398 79.4241 21.5201 79.8903C21.6594 80.0263 21.8065 80.008 21.9109 80.0994C22.3409 80.472 22.6584 80.8124 23.1651 81.0586C23.361 81.6872 23.0403 81.9253 22.8952 82.3434C22.7857 82.6592 22.6105 83.4596 22.4735 83.6932C22.3772 83.858 22.0973 83.923 22.0004 84.1129C21.3563 83.7277 21.2606 83.3774 21.0499 82.7572C20.2784 81.9937 19.5301 81.2125 18.7969 80.4231C18.8133 80.2751 18.832 80.1294 18.8497 79.9822C18.8499 79.9821 18.8501 79.9819 18.8502 79.9817C18.6722 79.592 18.3365 79.6477 18.1422 79.5277C16.2426 78.3556 13.93 74.8084 12.5576 72.9167C12.2571 72.5123 11.1375 71.2989 11.0766 70.912C11.0601 70.8116 11.1828 70.6881 11.1315 70.6073C10.5415 69.992 9.94934 69.3599 9.37061 68.729C8.56381 67.1437 7.35467 65.7708 6.38503 64.2651C5.78737 63.3299 5.20166 62.3707 4.70625 61.3138C3.07824 57.8968 2.20915 54.1132 1.84137 50.4922C1.74176 49.5839 1.49593 48.4497 1.49116 47.562C1.48938 47.1967 1.74881 47.0085 1.49636 46.5534C1.57004 46.5409 1.64372 46.5285 1.7174 46.5161C1.58572 46.1015 1.39088 45.8563 1.326 45.3872C1.27248 44.9955 1.15203 43.9509 1.14222 43.6041C1.13661 43.4215 1.28249 43.474 1.26306 43.304C1.22984 43.0217 0.968392 42.4248 0.921558 42.0315C0.885155 41.7227 0.941575 41.2452 0.92371 40.9277C0.920234 40.8669 0.914406 40.8129 0.90513 40.7681C0.695845 39.7555 0.33643 38.6747 0.299383 37.5915C0.288392 37.2823 0.434859 36.8806 0.422082 36.7882C0.396215 36.6069 0.217017 36.5675 0.184659 36.4478C0.0183842 35.8186 0.161113 34.8438 0.136705 34.2084C0.0556943 32.1936 -0.0500064 30.0513 0.0921121 28.0145C0.167386 26.7378 0.3721 24.5797 0.732717 23.4244C0.806677 23.1806 0.98377 23.2794 1.02532 23.0653C1.07207 22.828 0.971596 22.6769 0.98436 22.5665C1.05946 21.7908 1.40694 20.06 1.78963 19.4108C1.85946 19.2876 2.03732 19.2376 2.06497 19.1594C2.07939 19.1196 2.01553 18.994 2.0514 18.8675C2.37878 17.7253 2.79348 16.9703 3.24429 15.9974C3.41865 15.6184 3.57615 15.2339 3.70065 14.8504L3.73219 14.7661C4.40976 13.1019 5.13098 11.2496 6.15445 9.68313C6.43446 9.25378 6.87744 9.12008 6.91278 9.05932C6.99285 8.92525 6.87927 8.73046 7.02018 8.43646C7.48772 7.45034 8.5998 6.44804 9.31615 5.67207C9.66235 5.28195 10.0785 4.62227 10.499 4.27232C10.5444 4.23392 10.6008 4.19183 10.6651 4.14776L10.8338 4.05094C11.1524 3.88833 11.6386 3.65475 11.6918 3.49908C11.7244 3.39572 11.6339 3.19512 11.7023 3.11404ZM6.51946 14.9089C6.22644 14.7118 6.22312 15.4538 6.49476 15.2905C6.55564 15.2538 6.59523 14.9599 6.51946 14.9089ZM3.56047 46.213C3.65831 46.1968 3.75615 46.1807 3.85398 46.1645C3.80395 46.0776 3.75361 45.9877 3.70376 45.9028C3.6496 45.9592 3.59551 46.0163 3.54148 46.074C3.54782 46.1205 3.55415 46.1668 3.56047 46.213Z" fill="#726DE3"/>
<path d="M17.0027 12.4993C17.0256 12.5131 16.8949 12.5188 16.887 12.5314C16.8523 12.5851 16.7609 12.5987 16.7058 12.6468C16.6236 12.7203 16.7756 12.9599 15.8771 12.8923C15.8771 12.8923 15.8771 12.8923 15.8771 12.8923C15.8683 12.8916 15.8594 12.8909 15.8503 12.8901C15.6793 12.876 15.494 12.8411 15.3007 12.8229C15.1073 12.8047 13.8571 12.7091 13.7891 12.6742C13.6999 12.6241 14.0284 12.5497 14.0159 12.5269C14.0073 12.5113 13.8953 12.4831 13.8767 12.4614C13.817 12.392 13.9028 12.366 13.599 12.2835C13.7636 12.2744 13.928 12.2667 14.0926 12.257C14.0198 12.2202 14.2381 12.1935 14.2278 12.1746C14.2194 12.159 14.0916 12.1391 14.087 12.1232C14.0811 12.1053 14.2222 12.0916 14.204 12.0587C14.1751 12.0032 13.8408 11.9636 13.8011 11.9283C13.76 11.8916 13.9468 11.8589 13.8327 11.807C13.7964 11.7982 13.76 11.7894 13.7236 11.7807C13.6399 11.7765 13.5562 11.7724 13.4725 11.7684C13.4357 11.7432 13.6074 11.7503 13.6124 11.7312C13.6183 11.7087 13.4575 11.6814 13.4597 11.6661C13.4617 11.6536 13.5932 11.6494 13.5866 11.6325C13.5777 11.6079 13.3898 11.5946 13.356 11.5784C13.3427 11.5732 13.249 11.4656 13.2481 11.4603C13.2449 11.4185 13.5017 11.4414 13.5275 11.4117C13.598 11.3288 13.401 11.2132 13.3323 11.1196C13.3017 11.0773 13.3212 11.0393 13.3665 11.0067C14.0151 11.1414 14.5401 11.0746 13.5091 11.0006C13.6598 10.9768 13.3869 10.9123 13.4386 10.878C13.4723 10.8558 13.6165 10.8558 13.6174 10.8191C13.6182 10.7526 13.2245 10.6258 13.956 10.7052C13.8377 10.6114 14.1114 10.5822 13.4725 10.4627C13.436 10.4374 13.8266 10.4399 13.8818 10.4258C13.9337 10.4118 14.1314 10.2766 14.1454 10.2525C14.1592 10.2283 14.1774 10.1834 14.1251 10.1514C14.0602 10.1124 13.4003 9.97561 14.1847 10.0617C14.1324 9.99168 14.1585 9.97432 14.2584 9.93764C14.2764 9.931 14.3915 9.95161 14.3927 9.94587C14.3949 9.93409 14.3139 9.89782 14.3076 9.87472C14.2974 9.83662 14.5426 9.86499 14.1733 9.79589C14.116 9.76087 14.0589 9.72519 14.002 9.68884C14.0748 9.69503 14.1475 9.70139 14.2202 9.70792C14.1453 9.6796 14.0705 9.65106 13.9958 9.62229C14.5248 9.74822 14.2291 9.59629 13.9182 9.55891C14.0381 9.53576 14.158 9.51443 14.2777 9.49494C14.8787 9.63806 14.3696 9.41409 14.041 9.34414C14.0427 9.339 14.0445 9.33387 14.0462 9.32874C14.2166 9.32177 14.0966 9.24699 14.2175 9.21855C14.3383 9.19067 14.3954 9.21066 14.6746 9.26579C14.6621 9.24922 14.6496 9.23262 14.6372 9.21598C13.9023 8.9482 15.201 9.31176 14.6557 9.04267C15.1369 9.14025 14.9136 8.98686 14.7893 8.88528C14.7748 8.87359 14.6839 8.84589 14.6586 8.82833C14.5979 8.78551 14.732 8.76569 14.4388 8.67609C14.5297 8.68272 14.6204 8.68987 14.7111 8.69751C14.663 8.66482 14.615 8.63187 14.5672 8.59879C14.4761 8.56941 14.385 8.54003 14.2939 8.51066C14.6147 8.57853 14.512 8.48984 14.5944 8.48948C14.611 8.48959 14.7366 8.53028 14.7757 8.52683C14.8221 8.52302 14.7961 8.47799 14.8423 8.47057C14.7067 8.41512 14.5712 8.35939 14.4358 8.3034C14.3741 8.239 14.7432 8.35297 14.7791 8.34132C14.7853 8.33923 14.7845 8.25834 14.778 8.25206C14.7277 8.19902 14.4149 8.09648 14.5147 8.02847C14.5325 8.01671 14.6441 8.04295 14.6537 8.03009C14.6707 8.00759 14.4578 7.8401 14.2369 7.75022C14.5279 7.82396 14.4452 7.69792 14.5349 7.70502C14.5624 7.70723 14.7406 7.77352 14.7869 7.7659C14.8095 7.76224 14.7738 7.72453 14.7488 7.69177C14.7319 7.67023 14.7198 7.65091 14.7328 7.64559C14.7679 7.6317 14.9201 7.68097 14.9348 7.67438C14.9485 7.66809 14.832 7.61197 14.8381 7.59835C14.8592 7.55671 15.0673 7.59441 15.0842 7.56194C15.1091 7.51496 14.7709 7.33254 14.63 7.22819C14.6571 7.22709 14.7372 7.24736 14.7422 7.23688C14.8057 7.10998 14.9308 6.98858 15.0599 6.88908C15.1193 6.84302 15.66 6.89115 14.8446 6.6008C14.7134 6.52196 15.0988 6.5026 15.1156 6.47617C15.1324 6.44933 14.9992 6.36623 15.0065 6.34278C15.0288 6.2721 15.1524 6.26636 15.0629 6.13129C15.0394 6.09611 14.88 6.00149 14.8874 5.9895C14.8967 5.97523 15.0673 6.02788 15.086 6.01261C15.1294 5.97565 15.1133 5.86413 15.1607 5.83135C15.1697 5.82546 15.3144 5.88374 15.3643 5.89109C15.559 5.91994 15.5658 5.86205 15.1042 5.67533C15.3891 5.72804 15.1756 5.57166 15.1844 5.51107C15.2044 5.38292 15.4014 5.22011 15.253 5.03673C15.1593 4.92106 14.9537 4.83381 15.1709 4.81768C15.2191 4.81403 15.2808 4.8167 15.3384 4.81218C15.4739 4.80179 15.8754 4.91315 15.4392 4.66983C15.5856 4.65689 15.5246 4.56817 15.9349 4.69119C15.844 4.6446 15.7531 4.59801 15.6622 4.55141C15.6634 4.54247 15.6645 4.53353 15.6657 4.52459C15.7558 4.56119 15.846 4.59779 15.9361 4.63439C15.985 4.5881 15.6506 4.35558 15.6744 4.30864C15.714 4.22971 15.9473 4.08551 16.101 4.06236C16.1826 4.05005 15.993 3.9638 16.3948 4.11374C16.3716 4.09269 16.3483 4.07163 16.3251 4.05057C16.2418 4.00702 16.1586 3.96347 16.0753 3.91991C16.0948 3.86652 16.2551 3.86406 16.2756 3.81418C16.3126 3.72304 16.1365 3.48367 16.3314 3.46236C16.3804 3.4571 16.5697 3.50726 16.5775 3.48425C16.5891 3.45081 16.2993 3.31292 16.3119 3.26964C16.3343 3.19526 16.733 3.21561 16.7365 3.13758C16.7377 3.1145 16.6327 3.05683 16.6271 3.03804C16.6025 2.9587 16.6322 2.91572 16.488 2.78606C16.7951 2.85214 17.1554 3.0184 17.5295 3.16281C17.8118 3.27175 18.4706 3.5139 18.7152 3.61539C18.887 3.6867 19.0986 3.79961 19.2883 3.87684C19.4064 4.01363 19.2288 3.97011 18.9403 3.9103C18.9038 4.02051 18.8674 4.13067 18.8311 4.24074C18.7247 4.20498 18.6184 4.16922 18.512 4.13348C18.5118 4.13338 18.5115 4.13328 18.5113 4.13318C18.3755 4.12139 18.6308 4.25533 18.6808 4.30366C19.1596 4.76643 18.5302 4.97871 18.3643 5.18016C18.3288 5.22359 18.3957 5.44519 18.2146 5.40621C18.1675 5.39599 18.0087 5.32907 17.9977 5.33543C18.0547 5.46024 18.1117 5.58532 18.169 5.70973C17.8485 5.77428 17.9734 6.04075 17.9363 6.22993C17.8356 6.74263 17.7632 7.25725 17.5361 7.69815C17.4919 7.78334 17.5653 7.94436 17.4533 7.99869C17.4069 8.02125 17.1441 7.93302 17.3161 8.0576C17.2468 8.03014 17.1775 8.00269 17.1082 7.97524C17.175 8.05017 17.3216 8.14017 17.3191 8.19275C17.3168 8.23654 17.2859 8.34394 17.2462 8.36714C17.226 8.37945 17.099 8.32184 17.0931 8.33882C17.0837 8.36868 17.2395 8.49876 17.2242 8.53801C17.214 8.56427 17.117 8.57178 17.0718 8.58808C17.0557 8.59408 17.0461 8.60113 17.049 8.61042C17.0884 8.73773 17.2718 8.92544 17.176 9.00192C17.149 9.02317 16.9663 8.99722 16.9679 9.00762C16.9718 9.02804 17.1352 9.09208 17.1525 9.11067C17.2397 9.20529 17.0129 9.22304 16.9867 9.27546C16.9009 9.44586 16.9192 9.65068 16.843 9.8153C16.7941 9.9202 16.7816 10.1106 16.6307 10.1901C16.5981 10.2073 16.4111 10.1624 16.407 10.1824C16.4025 10.2047 16.5275 10.2419 16.5358 10.2539C16.5936 10.3386 16.6945 10.5166 16.5526 10.5615C16.5253 10.5702 16.3751 10.5549 16.3744 10.563C16.3737 10.567 16.4735 10.5933 16.4819 10.607C16.5559 10.7306 16.4845 10.8019 16.4339 10.9069C16.3376 11.1091 16.4971 11.3815 16.3696 11.5989C16.3418 11.6467 16.0419 11.6507 16.0441 11.6578C16.0485 11.6738 16.2467 11.7044 16.2927 11.7408C16.4436 11.8629 16.2172 11.9824 16.3078 12.0925C16.3525 12.146 16.5995 12.2383 16.6512 12.2921C16.6926 12.3338 16.5852 12.4171 16.695 12.4444C16.7613 12.4608 16.9767 12.4843 17.0027 12.4993ZM13.7883 10.8008C14.1309 10.8525 13.8558 10.7357 13.6675 10.7416C13.6251 10.743 13.6994 10.7874 13.7883 10.8008ZM15.3752 7.28857C15.2832 7.25215 15.1912 7.21573 15.0992 7.17931C15.1336 7.20411 15.168 7.22887 15.2024 7.25358C15.2597 7.2706 15.317 7.28763 15.3743 7.30467C15.3746 7.29931 15.3749 7.29394 15.3752 7.28857Z" fill="#726DE3"/>
<path d="M5.26016 5.70694C5.26929 5.72962 5.19106 5.62588 5.18109 5.62442C5.13992 5.61642 5.07702 5.551 5.01863 5.53163C4.9312 5.50069 4.9138 5.74856 4.27345 5.11657C4.27344 5.11656 4.27343 5.11655 4.27342 5.11654C4.26721 5.11024 4.26096 5.10385 4.25464 5.09737C4.13459 4.97464 4.02084 4.82372 3.88863 4.68151C3.75645 4.5392 2.87923 3.64304 2.86793 3.55628C2.8579 3.43629 3.20741 3.5554 3.22621 3.52194C3.24 3.49737 3.19322 3.38795 3.20847 3.34952C3.25953 3.22475 3.35488 3.25706 3.26753 2.93922C3.39908 3.0461 3.5273 3.15621 3.65138 3.26987C3.65587 3.17608 3.83924 3.31568 3.85916 3.29022C3.87619 3.26873 3.82447 3.1495 3.84608 3.1302C3.87034 3.10774 3.97905 3.20648 4.01766 3.16253C4.08189 3.09112 3.94865 2.78215 3.98536 2.71723C4.02379 2.65001 4.1836 2.7792 4.20759 2.64166C4.20251 2.60374 4.19765 2.56576 4.19303 2.52772C4.15528 2.45263 4.1172 2.3777 4.07877 2.30293C4.10308 2.25103 4.18348 2.40384 4.218 2.39387C4.25907 2.38216 4.22338 2.22195 4.25194 2.21236C4.27575 2.20452 4.34901 2.31696 4.37464 2.2995C4.41252 2.27466 4.34335 2.09928 4.35563 2.05801C4.36135 2.04097 4.50015 1.88856 4.51059 1.88458C4.58106 1.8562 4.65747 2.1027 4.71861 2.10926C4.88413 2.12782 4.98785 1.88992 5.10789 1.78445C5.16328 1.7369 5.22634 1.73972 5.2942 1.7689C5.32838 2.43393 5.61496 2.90276 5.35568 1.90073C5.44459 2.03372 5.44187 1.7512 5.51065 1.78738C5.55419 1.81125 5.6036 1.94818 5.65759 1.93581C5.75053 1.91335 5.79989 1.49515 5.92879 2.21986C6.01872 2.07617 6.14576 2.32892 6.10252 1.67984C6.12592 1.63685 6.24651 2.01169 6.28186 2.0604C6.31714 2.10572 6.55677 2.25423 6.59333 2.26035C6.63128 2.26604 6.69293 2.27021 6.71711 2.21044C6.74666 2.13653 6.70752 1.46356 6.85263 2.24038C6.92268 2.16942 6.95278 2.18915 7.03424 2.2733C7.04901 2.28852 7.06107 2.4048 7.06857 2.4042C7.08382 2.40276 7.10187 2.3143 7.12859 2.30125C7.17258 2.27986 7.22127 2.52243 7.18203 2.14875C7.2067 2.08325 7.23217 2.01771 7.25587 1.95236C7.27277 2.02365 7.28965 2.09494 7.30652 2.16624C7.31547 2.08611 7.32457 2.00598 7.33379 1.92585C7.36231 2.46907 7.448 2.13956 7.3841 1.832C7.40244 1.86047 7.42083 1.88895 7.43925 1.91742C7.48831 1.99602 7.53763 2.07463 7.58722 2.15326C7.63057 2.76965 7.72175 2.21357 7.68203 1.87978C7.68863 1.87972 7.69524 1.87967 7.70185 1.87961C7.77287 2.03855 7.81527 1.90032 7.89596 2.00444C7.97524 2.10867 7.97303 2.16922 8.01685 2.45083C8.03201 2.4333 8.04725 2.41578 8.06254 2.39825C8.08874 1.61468 8.17981 2.96058 8.28075 2.35342C8.36517 2.83805 8.46373 2.57266 8.52926 2.41893C8.53699 2.40106 8.53011 2.30626 8.53997 2.27615C8.56409 2.20368 8.64867 2.31998 8.62376 2.01441C8.65675 2.10094 8.68888 2.18753 8.72101 2.27414C8.73802 2.21701 8.75512 2.15989 8.77232 2.10276C8.76534 2.00731 8.75835 1.91186 8.75136 1.81641C8.81751 2.13866 8.87613 2.0088 8.9153 2.08421C8.92308 2.0995 8.93397 2.23108 8.95672 2.26557C8.9834 2.30653 9.02495 2.26444 9.05633 2.30359C9.05716 2.15693 9.05805 2.01027 9.05898 1.8636C9.10472 1.7809 9.14966 2.16471 9.18195 2.19253C9.18845 2.1973 9.28349 2.16295 9.28844 2.15436C9.32732 2.08623 9.29218 1.75898 9.42358 1.82067C9.44714 1.83185 9.47278 1.94417 9.49309 1.94738C9.52888 1.95323 9.61923 1.68856 9.61207 1.45005C9.67568 1.74492 9.78348 1.61556 9.82299 1.6994C9.835 1.72518 9.84972 1.91473 9.88397 1.95304C9.91171 1.98429 9.96815 1.82808 10.0027 1.85138C10.0395 1.87679 10.0614 2.03541 10.0776 2.04568C10.0928 2.05523 10.0979 1.92571 10.1178 1.92518C10.1801 1.92569 10.2497 2.12918 10.2993 2.12985C10.3712 2.1313 10.4087 1.74649 10.4579 1.5736C10.4742 1.59737 10.4938 1.67823 10.5094 1.67801C10.702 1.67799 10.9221 1.73493 11.1184 1.80496C11.2108 1.83696 11.4614 2.34103 11.3512 1.48158C11.3732 1.32859 11.6193 1.66315 11.6619 1.66592C11.705 1.6686 11.7298 1.51186 11.7634 1.5076C11.8656 1.49486 11.9418 1.60231 12.058 1.46038C12.0879 1.4233 12.1117 1.23798 12.1308 1.23902C12.154 1.24069 12.1883 1.41662 12.2183 1.42619C12.2897 1.44763 12.4175 1.3818 12.4869 1.40863C12.4995 1.41393 12.5127 1.56938 12.5329 1.61705C12.6119 1.80332 12.6877 1.78249 12.646 1.28614C12.7498 1.5634 12.817 1.30136 12.897 1.28105C13.0673 1.23917 13.387 1.33782 13.5253 1.12068C13.6123 0.983702 13.5976 0.760855 13.7476 0.945623C13.7809 0.986596 13.8147 1.04248 13.8548 1.09135C13.9489 1.20636 14.0519 1.61392 14.0919 1.11387C14.1966 1.2373 14.2687 1.14183 14.3641 1.56244C14.3671 1.46016 14.3701 1.35788 14.3731 1.25559C14.3849 1.25243 14.3968 1.24926 14.4086 1.2461C14.4176 1.343 14.4265 1.43991 14.4355 1.53682C14.5229 1.55832 14.6092 1.15338 14.6819 1.15239C14.804 1.15032 15.1245 1.28867 15.2466 1.41359C15.3114 1.47992 15.3036 1.27176 15.3613 1.69744C15.3734 1.66697 15.3854 1.6365 15.3975 1.60603C15.4011 1.51195 15.4047 1.41788 15.4082 1.32381C15.4865 1.31589 15.5872 1.45636 15.6616 1.45092C15.7975 1.44071 15.9881 1.17223 16.1336 1.33425C16.1701 1.37511 16.2232 1.56591 16.2566 1.56196C16.3051 1.55639 16.3001 1.23538 16.3617 1.22612C16.4679 1.21075 16.6863 1.57248 16.7856 1.53871C16.8151 1.52889 16.8228 1.40894 16.8428 1.39512C16.9267 1.33588 16.9984 1.34185 17.0718 1.15325C17.1773 1.45558 17.1904 1.85229 17.2391 2.25071C17.276 2.55142 17.3771 3.24748 17.4001 3.51133C17.4163 3.6967 17.405 3.93685 17.4247 4.14079C17.3263 4.30967 17.2719 4.13232 17.17 3.84934C17.0102 3.86924 16.8504 3.88914 16.6907 3.90905C16.6702 3.79824 16.6498 3.68743 16.6293 3.57662C16.6293 3.57638 16.6292 3.57613 16.6292 3.57589C16.5608 3.45037 16.5499 3.7391 16.5201 3.80608C16.2352 4.44737 15.5838 3.9917 15.2303 3.94003C15.1539 3.92909 14.9172 4.09256 14.8555 3.91415C14.8396 3.86768 14.8266 3.69584 14.8119 3.68911C14.6902 3.79826 14.5685 3.90744 14.4467 4.01664C14.171 3.76348 13.9117 3.99905 13.6511 4.05473C12.9436 4.20567 12.2474 4.38115 11.5449 4.3817C11.41 4.38147 11.245 4.52074 11.1087 4.44566C11.052 4.41455 11.0111 4.13985 10.9512 4.35013C10.9459 4.27577 10.9406 4.20141 10.9352 4.12706C10.8774 4.22078 10.8475 4.39257 10.7782 4.41415C10.7187 4.43211 10.5614 4.45306 10.5075 4.42794C10.4794 4.41544 10.481 4.27577 10.4552 4.27811C10.4113 4.28314 10.3299 4.48129 10.2701 4.48514C10.2163 4.48859 10.1132 4.33448 10.0727 4.36041C9.9278 4.45252 9.7781 4.70079 9.61444 4.64798C9.56848 4.63302 9.4991 4.45672 9.48557 4.4627C9.45918 4.47502 9.46314 4.65061 9.44659 4.67435C9.3638 4.79427 9.20231 4.59653 9.11297 4.59459C8.8154 4.5886 8.50924 4.68806 8.21493 4.67897C8.06993 4.67437 7.84774 4.70835 7.67594 4.66586C7.6281 4.65454 7.58422 4.63763 7.54613 4.6129C7.50747 4.58771 7.50008 4.39541 7.46985 4.3981C7.43687 4.40109 7.42906 4.53218 7.41422 4.54406C7.30991 4.62716 7.08765 4.78038 6.97132 4.6592C6.94953 4.63584 6.92003 4.4875 6.90864 4.48925C6.90278 4.48987 6.90079 4.59342 6.88365 4.60581C6.73048 4.71575 6.6117 4.66907 6.45195 4.65392C6.14765 4.62554 5.85535 4.86541 5.58241 4.8255C5.52294 4.81668 5.40939 4.5388 5.40174 4.54392C5.38582 4.55443 5.42635 4.75096 5.40777 4.80769C5.34774 4.99327 5.15193 4.83604 5.10789 4.96524C5.08592 5.02868 5.15096 5.28003 5.15264 5.34314C5.15339 5.39325 5.05326 5.33687 5.10378 5.43741C5.13452 5.49781 5.24979 5.68131 5.26016 5.70694ZM5.74054 2.09213C5.78201 2.43618 5.8527 2.13443 5.78259 1.95688C5.76648 1.91692 5.72952 2.00282 5.74054 2.09213ZM10.8028 2.26766C10.7957 2.16895 10.7887 2.07024 10.7816 1.97153C10.7703 2.01348 10.7591 2.05543 10.7478 2.09738C10.7592 2.15628 10.7706 2.21518 10.7821 2.27408C10.789 2.27194 10.7959 2.2698 10.8028 2.26766Z" fill="#726DE3"/>
</svg>
