<svg width="24" height="24" viewBox="0 0 24 24" fill="none" xmlns="http://www.w3.org/2000/svg">
<path d="M15 5.5C15 6.32843 14.3284 7 13.5 7C12.6716 7 12 6.32843 12 5.5C12 4.67157 12.6716 4 13.5 4C14.3284 4 15 4.67157 15 5.5Z" stroke="white" stroke-width="2"/>
<path d="M4 8L4 19C4 19.5523 4.44772 20 5 20L19 20C19.5523 20 20 19.5523 20 19L20 8" stroke="white" stroke-width="2" stroke-linecap="round" stroke-linejoin="round"/>
<path d="M4 12L20 12" stroke="white" stroke-width="2" stroke-linecap="round" stroke-linejoin="round"/>
<path d="M18 4H6C4.89543 4 4 4.89543 4 6V8H20V6C20 4.89543 19.1046 4 18 4Z" stroke="white" stroke-width="2" stroke-linecap="round" stroke-linejoin="round"/>
</svg>
